<?xml version="1.0" standalone="no"?>
<!DOCTYPE svg PUBLIC "-//W3C//DTD SVG 20010904//EN"
 "http://www.w3.org/TR/2001/REC-SVG-20010904/DTD/svg10.dtd">
<svg version="1.0" xmlns="http://www.w3.org/2000/svg"
 width="192.000000pt" height="192.000000pt" viewBox="0 0 192.000000 192.000000"
 preserveAspectRatio="xMidYMid meet">
<metadata>
Created by potrace 1.14, written by Peter Selinger 2001-2017
</metadata>
<g transform="translate(0.000000,192.000000) scale(0.100000,-0.100000)"
fill="#000000" stroke="none">
<path d="M280 1903 c0 -15 -2 -16 -10 -3 -8 13 -11 13 -19 1 -5 -7 -14 -10
-20 -7 -6 4 -11 3 -11 -3 0 -6 -7 -8 -15 -5 -8 4 -15 1 -15 -7 0 -7 -3 -9 -7
-6 -3 4 -17 0 -30 -8 -13 -9 -23 -13 -23 -10 0 14 -88 -82 -94 -102 -4 -13
-11 -23 -16 -23 -12 0 -18 -69 -5 -74 6 -3 6 -5 -1 -5 -12 -1 -8 -71 5 -81 3
-3 15 -22 26 -42 10 -20 21 -36 24 -34 9 5 40 -32 33 -39 -4 -3 1 -3 11 1 10
3 17 1 17 -6 0 -6 5 -8 10 -5 6 3 10 2 10 -3 0 -9 19 -17 43 -20 5 0 15 -9 24
-19 8 -10 12 -12 8 -5 -4 7 0 12 9 12 9 0 16 -4 16 -10 0 -5 14 -10 30 -10 17
0 30 -4 30 -8 0 -7 24 -12 68 -15 6 0 12 -5 12 -11 0 -6 4 -6 11 1 9 9 18 8
35 -4 13 -8 24 -12 24 -8 0 4 6 2 13 -4 8 -6 17 -8 20 -4 4 3 7 1 7 -6 0 -7 5
-9 10 -6 6 3 10 1 10 -4 0 -6 7 -11 15 -11 8 0 15 -9 15 -19 0 -11 5 -23 10
-26 6 -3 10 -11 10 -16 0 -6 -4 -8 -9 -5 -5 4 -7 -2 -4 -13 3 -11 -2 -21 -12
-25 -9 -3 -13 -11 -9 -17 4 -7 3 -9 -4 -5 -6 3 -17 0 -25 -8 -8 -8 -17 -13
-20 -10 -3 4 -12 2 -19 -2 -17 -11 -37 -11 -65 -2 -14 4 -23 3 -27 -5 -2 -7
-5 -4 -5 6 -1 9 -5 16 -10 15 -21 -6 -70 38 -89 79 -10 23 -15 40 -9 36 5 -3
8 0 5 8 -5 14 -98 21 -98 8 0 -4 -17 -5 -37 -4 -21 2 -44 -1 -52 -8 -12 -10
-13 -9 -6 3 8 13 7 13 -8 1 -15 -12 -17 -11 -17 5 -1 18 -1 18 -11 1 -8 -13
-14 -15 -23 -8 -20 17 -21 -110 -1 -149 19 -36 79 -100 94 -100 6 0 11 -4 11
-9 0 -10 34 -23 66 -25 12 -1 28 -7 35 -12 8 -6 24 -10 37 -9 13 1 25 -2 28
-6 2 -5 12 -5 21 -2 12 5 14 3 8 -8 -8 -12 -6 -12 9 0 15 12 19 13 26 1 7 -11
11 -11 24 -1 9 8 16 9 16 4 0 -10 66 -10 76 0 4 3 15 2 25 -3 12 -7 20 -7 24
0 3 5 11 10 16 10 6 0 8 -4 5 -8 -2 -4 4 -8 15 -8 10 0 19 4 19 8 0 4 9 5 20
3 11 -2 22 0 25 5 3 5 14 7 25 5 11 -2 20 1 20 6 0 6 4 8 9 5 12 -8 42 4 36
14 -3 5 3 7 12 6 11 -2 36 16 61 42 39 42 44 50 41 68 0 4 5 10 12 15 7 4 14
18 16 31 1 13 5 35 8 51 11 57 12 77 5 77 -9 0 -8 20 3 36 8 14 -16 37 -28 26
-5 -4 -5 -2 -2 5 10 16 -3 44 -16 36 -6 -3 -7 -1 -3 5 8 13 -68 95 -78 84 -4
-4 -14 1 -21 11 -7 10 -16 18 -20 17 -7 -2 -62 17 -89 32 -14 7 -16 7 -10 -4
5 -9 2 -9 -10 2 -10 8 -28 15 -40 16 -11 1 -30 5 -40 10 -12 4 -17 4 -13 -3 3
-5 0 -10 -8 -10 -8 0 -13 5 -12 11 1 6 -6 10 -17 8 -10 -2 -15 1 -12 6 3 5 -8
8 -25 7 -16 -1 -36 4 -44 12 -9 8 -15 10 -15 3 0 -8 -6 -8 -21 0 -42 23 -58
43 -49 60 5 10 6 20 3 24 -3 3 -2 6 4 6 5 0 20 9 32 19 12 11 30 18 39 16 9
-2 17 -4 17 -5 0 -1 8 -3 18 -5 9 -2 15 1 11 6 -3 5 -10 6 -16 3 -7 -4 -8 -2
-4 4 5 9 13 9 27 2 10 -6 19 -7 19 -3 0 4 4 3 8 -2 4 -6 19 -16 34 -24 15 -8
35 -30 44 -50 21 -45 31 -52 61 -40 16 6 23 5 23 -4 0 -7 3 -8 8 -2 4 6 25 10
47 9 22 -1 47 2 56 7 9 5 19 5 23 2 12 -12 36 -12 36 0 0 8 3 7 9 -2 6 -9 11
-10 15 -2 4 6 11 9 16 6 5 -3 7 5 4 17 -3 13 -6 31 -6 40 1 10 -4 20 -9 23 -5
4 -7 11 -4 16 4 5 1 9 -4 9 -6 0 -11 7 -11 15 0 8 -4 15 -10 15 -5 0 -10 5
-10 11 0 19 -74 79 -97 79 -13 0 -23 4 -23 8 0 5 -6 9 -12 10 -7 1 -24 4 -38
6 -14 2 -31 5 -38 5 -7 1 -11 5 -8 9 3 5 -1 9 -9 9 -8 0 -12 -3 -10 -7 2 -4
-2 -7 -10 -7 -8 0 -12 4 -9 9 3 5 -41 8 -100 7 -58 -1 -106 -5 -106 -10 0 -5
-5 -9 -11 -9 -5 0 -7 5 -4 10 3 6 1 10 -4 10 -6 0 -11 -8 -11 -17z"/>
<path d="M969 1841 c-13 -5 -15 -65 -15 -426 0 -287 3 -423 11 -430 16 -15 34
-16 57 -4 13 7 18 7 14 1 -7 -12 39 -10 51 1 3 4 12 2 20 -5 10 -8 19 -8 36 1
23 12 23 13 22 247 0 149 -4 234 -10 234 -5 0 -3 5 5 10 13 9 13 11 0 20 -8 5
-10 10 -5 10 21 0 35 -17 37 -43 1 -15 5 -27 9 -27 4 0 7 -10 7 -22 1 -28 5
-43 20 -88 6 -19 14 -48 16 -64 3 -16 9 -32 13 -35 5 -3 8 -16 7 -28 -1 -13 3
-23 8 -23 5 0 7 -4 3 -9 -3 -5 0 -13 6 -17 8 -4 7 -9 -2 -15 -12 -7 -12 -9 0
-9 7 0 11 -6 7 -15 -3 -8 -1 -15 4 -15 5 0 7 -6 4 -14 -3 -8 -1 -17 5 -21 6
-3 11 -17 11 -31 0 -13 5 -24 11 -24 5 0 7 -4 4 -10 -3 -5 -1 -11 4 -11 6 -1
17 -2 24 -3 6 -1 20 1 29 6 10 5 19 4 23 -2 3 -5 11 -10 16 -10 6 0 8 4 5 8
-3 5 1 9 9 9 8 0 15 -4 15 -8 0 -16 63 -3 66 14 1 9 9 30 17 47 10 19 11 28 4
23 -7 -4 -6 0 2 10 7 9 10 17 6 17 -4 0 -3 6 3 13 6 6 10 15 11 20 2 34 15 77
25 77 6 0 4 5 -4 10 -13 9 -13 10 0 10 10 0 16 11 17 33 4 50 6 57 16 57 5 0
7 6 4 14 -3 8 -3 17 1 21 4 4 8 11 8 16 1 5 2 10 4 12 2 2 8 37 13 72 5 35 17
48 33 34 20 -16 6 -33 -14 -17 -15 12 -16 11 -3 -5 15 -19 22 -107 9 -107 -4
0 -3 -13 2 -30 5 -19 5 -30 -1 -30 -6 0 -5 -8 1 -20 6 -12 7 -20 1 -20 -6 0
-6 -11 -1 -30 5 -17 5 -30 0 -30 -5 0 -5 -13 0 -30 5 -16 5 -30 1 -30 -4 0 -4
-27 -1 -60 3 -33 2 -61 -2 -62 -4 -2 -4 -9 1 -16 9 -15 119 -23 128 -9 3 4 10
4 16 0 7 -5 19 -8 27 -7 8 1 21 2 29 3 7 0 11 7 8 16 -4 8 -2 17 2 19 5 3 7
18 4 33 -7 53 -8 93 -2 93 8 0 5 32 -5 48 -4 7 -2 12 4 12 6 0 8 5 4 12 -11
18 -12 48 -2 48 5 0 4 9 -2 20 -6 11 -7 20 -2 20 10 0 9 30 -2 48 -4 7 -2 12
4 12 6 0 8 5 4 12 -10 16 -13 48 -4 48 4 0 5 12 3 28 -7 52 -8 92 -2 92 8 0 5
32 -5 48 -4 7 -2 12 4 12 6 0 8 5 4 12 -10 16 -13 48 -4 48 4 0 5 12 3 28 -7
52 -8 92 -2 92 10 0 3 38 -9 53 -9 11 -22 13 -46 7 -19 -4 -40 -4 -47 1 -7 4
-20 4 -30 -1 -9 -5 -19 -7 -22 -4 -9 10 -68 11 -73 2 -3 -5 -12 -4 -19 2 -9 7
-15 8 -19 1 -4 -6 -16 -7 -29 -2 -25 9 -50 4 -41 -10 3 -5 0 -9 -6 -9 -6 0 -8
-4 -5 -10 3 -5 3 -10 -2 -10 -4 0 -9 -10 -10 -23 -3 -25 -7 -45 -16 -67 -3 -8
-7 -24 -9 -35 -2 -11 -8 -25 -14 -31 -6 -7 -9 -26 -8 -43 1 -17 -2 -31 -8 -31
-5 0 -7 -4 -3 -9 3 -5 1 -12 -4 -16 -6 -3 -8 -12 -4 -20 3 -8 1 -15 -5 -15 -6
0 -9 -8 -7 -17 1 -10 -3 -24 -9 -32 -9 -12 -8 -13 2 -7 11 7 12 4 3 -11 -6
-13 -7 -23 -1 -29 6 -6 3 -10 -9 -10 -13 0 -22 11 -29 33 -6 18 -6 31 -2 28
11 -7 -12 58 -23 66 -5 3 -8 9 -7 13 1 5 -8 52 -16 89 -1 4 -2 12 -3 18 0 5
-5 8 -9 5 -5 -3 -8 8 -7 25 1 16 -2 32 -6 35 -5 2 -6 11 -2 19 3 8 1 15 -4 15
-5 0 -10 12 -11 27 -1 15 -8 30 -15 35 -6 4 -8 8 -3 8 6 0 2 6 -7 13 -18 13
-96 15 -115 3 -6 -3 -14 -2 -17 4 -5 8 -11 7 -22 -1 -9 -8 -17 -9 -21 -3 -9
11 -72 13 -72 1 0 -4 -6 -5 -12 -1 -16 10 -41 12 -59 5z"/>
<path d="M834 900 c-6 -6 -9 -31 -7 -56 4 -36 2 -44 -9 -38 -7 4 -5 -2 5 -13
10 -12 14 -23 10 -26 -10 -7 -10 -48 1 -65 4 -7 3 -12 -3 -12 -6 0 -7 -14 -4
-34 3 -21 1 -36 -7 -41 -9 -6 -11 -4 -5 6 8 12 6 12 -8 0 -14 -11 -17 -11 -17
0 0 10 -3 10 -12 1 -14 -14 -32 -16 -24 -3 8 12 -44 5 -57 -8 -6 -6 -7 -11 -3
-11 5 0 3 -7 -4 -15 -8 -10 -9 -15 -1 -15 7 0 8 -8 1 -25 -12 -32 7 -43 42
-24 21 11 22 11 10 -4 -12 -14 -11 -15 15 -9 15 5 34 7 41 6 6 -1 16 -2 20 -3
13 -2 14 -101 1 -117 -10 -12 -9 -13 7 -8 15 5 16 4 8 -5 -7 -8 -9 -25 -4 -47
4 -18 4 -32 0 -29 -5 3 -6 -12 -3 -32 3 -21 10 -40 15 -41 4 -2 5 -9 2 -15 -5
-9 -4 -9 6 0 7 6 19 9 28 6 11 -5 13 -3 7 7 -6 10 -4 11 6 4 22 -13 33 -13 47
2 10 11 10 14 0 14 -9 0 -9 3 0 12 7 7 8 17 1 30 -7 13 -6 18 2 18 9 0 9 3 0
14 -8 10 -9 16 -1 21 7 4 7 12 0 26 -7 12 -7 19 -1 19 7 0 7 9 1 25 -7 18 -6
25 3 25 8 0 8 3 -2 9 -9 6 -10 11 -2 15 8 5 8 13 1 27 -7 12 -7 19 -1 19 7 0
7 9 1 25 -7 18 -6 25 3 25 8 0 8 3 -2 9 -9 6 -10 11 -2 15 8 5 8 13 1 27 -7
12 -7 19 -1 19 7 0 7 9 1 25 -7 18 -6 25 3 25 8 0 8 3 -2 9 -9 6 -10 11 -2 15
8 5 8 13 1 27 -7 12 -7 19 -1 19 7 0 7 9 1 24 -6 17 -5 26 3 30 8 3 8 5 -2 5
-11 1 -11 4 -1 16 10 12 10 15 -1 15 -10 0 -10 3 -1 12 13 13 -3 52 -19 43 -5
-4 -9 -1 -9 5 0 6 -5 8 -12 3 -20 -12 -42 -13 -48 -3 -4 6 -10 6 -16 0z"/>
<path d="M1691 901 c-7 -5 -26 -7 -41 -5 -16 2 -32 -1 -35 -6 -4 -6 -12 -7
-18 -3 -7 3 -3 -3 7 -15 11 -12 15 -22 10 -22 -5 0 -10 -11 -10 -25 -1 -14 1
-23 6 -20 9 6 0 -47 -11 -61 -5 -6 -35 -10 -66 -9 -37 1 -63 -4 -71 -12 -10
-9 -10 -13 -1 -13 9 0 8 -4 -1 -15 -10 -12 -10 -15 1 -15 10 0 10 -3 2 -11 -9
-9 -9 -15 0 -24 15 -15 50 -16 59 -1 6 8 8 8 8 -1 0 -6 13 -10 31 -9 17 1 38
-4 47 -11 9 -7 13 -13 7 -13 -5 0 -11 -11 -11 -25 -1 -14 2 -22 7 -19 5 3 7
-1 4 -8 -9 -28 -12 -99 -3 -104 17 -11 93 -11 104 0 7 6 9 18 5 26 -8 18 -7
63 3 79 4 6 3 11 -2 11 -5 0 -9 7 -9 15 0 8 4 12 8 9 4 -2 7 5 6 16 -1 11 -5
20 -10 20 -5 0 -4 7 3 15 10 12 10 15 0 15 -10 0 -10 3 0 15 8 10 9 15 1 15
-7 0 -8 8 -1 25 7 17 6 25 -1 25 -8 0 -7 5 1 15 8 9 8 15 2 15 -7 0 -8 10 -2
30 6 21 5 30 -3 30 -8 0 -8 3 -2 8 14 10 16 44 2 35 -6 -4 -8 0 -4 10 7 20 -4
29 -22 18z"/>
<path d="M1264 876 c-6 -7 -10 -27 -9 -44 1 -18 -2 -35 -7 -38 -4 -3 -8 -11
-8 -17 0 -7 4 -6 10 3 5 8 10 10 10 4 0 -6 -6 -17 -13 -23 -8 -6 -13 -24 -12
-41 1 -17 0 -28 -3 -25 -3 2 -14 -12 -25 -33 -21 -40 -95 -112 -114 -112 -7 0
-12 -6 -10 -12 1 -7 -5 -12 -14 -10 -31 5 -29 -27 4 -63 30 -33 67 -47 67 -25
0 6 5 10 10 10 6 0 18 8 29 18 10 9 31 28 48 42 33 28 66 74 58 82 -3 2 5 4
18 2 12 -1 26 -3 31 -3 4 -1 6 -8 3 -15 -4 -9 2 -17 14 -21 10 -4 19 -13 19
-21 0 -8 6 -13 13 -11 6 1 11 -4 9 -11 -1 -8 1 -11 6 -8 5 3 18 -3 29 -14 12
-10 23 -16 27 -13 3 3 8 -2 12 -11 3 -9 10 -13 15 -10 5 3 9 1 9 -5 0 -14 74
60 76 76 1 7 -17 21 -40 32 -44 19 -129 95 -119 105 4 3 -1 6 -10 6 -10 0 -17
7 -17 16 0 8 -7 22 -15 30 -10 10 -12 21 -6 31 4 9 6 25 3 36 -4 14 -2 18 7
12 10 -6 11 -3 2 14 -9 16 -9 21 0 21 8 0 7 5 -2 17 -9 11 -10 14 -2 9 9 -5
11 -2 7 9 -4 9 -12 14 -18 12 -6 -2 -19 0 -28 4 -10 6 -19 5 -23 -1 -4 -7 -11
-8 -18 -1 -8 6 -16 5 -23 -3z"/>
<path d="M326 843 c-2 -2 0 -21 4 -43 4 -22 3 -37 -1 -34 -5 3 -9 0 -9 -5 0
-6 5 -11 11 -11 5 0 8 -3 5 -8 -7 -11 98 -9 106 3 5 7 8 6 8 -1 0 -6 25 -9 65
-8 61 1 65 0 62 -20 -1 -11 -6 -27 -11 -35 -6 -10 -5 -12 2 -7 8 5 10 2 6 -8
-3 -9 -10 -16 -16 -16 -5 0 -6 -4 -3 -10 3 -5 1 -10 -4 -10 -6 0 -10 -3 -9 -7
3 -17 -18 -50 -56 -88 -50 -50 -131 -106 -140 -98 -3 4 -6 0 -6 -7 0 -7 -3
-10 -6 -7 -4 3 -15 2 -25 -3 -12 -7 -16 -18 -13 -36 5 -27 34 -77 34 -59 0 6
4 4 9 -3 6 -10 19 -7 58 12 28 14 56 33 63 41 7 8 17 15 24 15 15 0 134 127
141 151 4 10 10 19 14 19 4 0 8 6 9 13 2 27 8 46 20 59 6 8 9 18 5 21 -3 4 -2
7 4 7 5 0 10 6 11 13 4 48 14 92 23 98 8 5 8 9 0 13 -6 4 -8 13 -4 19 4 6 8
19 8 27 1 14 -22 16 -192 16 -107 0 -195 -2 -197 -3z"/>
<path d="M1354 416 c-4 -10 -14 -12 -40 -6 -23 5 -32 4 -27 -3 4 -7 0 -8 -13
-3 -58 23 -76 11 -79 -54 -2 -40 8 -50 42 -44 14 3 22 1 19 -4 -3 -5 1 -9 9
-9 8 0 12 3 10 7 -2 4 11 7 30 7 19 0 32 -3 30 -7 -6 -9 48 -6 63 4 7 4 20 2
29 -6 12 -9 15 -9 9 0 -4 7 -1 12 9 12 9 0 14 -4 11 -8 -3 -5 1 -9 9 -9 8 0
12 4 10 7 -7 11 57 7 74 -4 10 -7 12 -6 6 4 -6 10 -4 12 8 7 9 -3 18 -1 21 6
2 7 5 4 5 -6 1 -10 6 -15 11 -12 6 3 10 -4 10 -15 0 -16 -4 -20 -16 -16 -8 3
-13 2 -10 -3 3 -4 -8 -8 -24 -7 -17 1 -30 4 -30 7 0 3 -7 6 -15 6 -8 0 -12 -3
-10 -6 2 -3 -23 -6 -56 -6 -32 0 -59 4 -59 8 0 5 -5 5 -12 1 -16 -10 -69 -13
-63 -3 3 4 -7 4 -22 0 -16 -4 -39 -5 -53 -1 -14 3 -30 1 -36 -4 -6 -7 -10 -59
-10 -131 l1 -120 268 -3 c210 -2 267 0 268 10 2 20 2 51 1 74 -2 16 -8 21 -29
20 -16 -1 -34 -5 -40 -9 -7 -5 -13 -4 -13 1 0 4 -20 8 -45 8 -25 -1 -45 -5
-45 -11 0 -7 -3 -7 -8 0 -9 13 -145 13 -154 0 -5 -6 -8 -6 -8 1 0 14 -30 14
-30 0 0 -6 -4 -5 -9 2 -4 8 -11 13 -15 13 -33 -5 -41 7 -24 34 4 6 80 10 202
10 108 0 196 3 196 8 0 4 4 6 8 3 5 -3 9 1 9 9 0 8 -4 15 -9 15 -5 0 -6 6 -2
12 10 16 13 48 4 48 -4 0 -7 7 -7 15 0 8 4 12 8 9 4 -2 7 5 6 16 -1 11 -5 20
-9 20 -5 0 -4 9 2 20 8 15 8 20 -2 20 -8 0 -9 3 -3 8 16 12 16 32 0 32 -8 0
-15 4 -15 10 0 11 -28 9 -49 -4 -9 -6 -12 -5 -8 1 4 7 -6 11 -26 11 -17 0 -44
3 -59 5 -17 2 -28 0 -28 -7 0 -6 -5 -4 -10 4 -7 11 -10 11 -10 2 0 -10 -5 -10
-20 -2 -15 8 -20 8 -20 -2 0 -10 -2 -10 -9 1 -7 10 -10 10 -13 1 -3 -10 -9
-10 -27 -1 -18 10 -25 10 -35 0 -8 -9 -8 -10 3 -4 10 6 12 4 7 -4 -6 -9 -11
-9 -22 0 -7 6 -11 15 -8 20 3 5 3 9 -1 9 -3 0 -8 -6 -11 -14z"/>
<path d="M423 277 c-10 -17 -11 -47 -1 -47 5 0 4 -10 -3 -21 -8 -16 -8 -20 1
-14 9 6 9 3 1 -13 -14 -26 -14 -35 0 -26 7 4 6 -2 -1 -17 -10 -17 -10 -24 -2
-27 8 -2 9 -9 2 -22 -7 -13 -7 -21 0 -25 8 -5 8 -11 0 -20 -8 -9 -8 -15 0 -20
6 -3 8 -10 5 -15 -3 -4 115 -8 263 -8 l268 0 -1 49 c0 26 -6 54 -12 61 -7 6
-13 8 -13 3 0 -6 -5 -3 -10 5 -7 10 -10 11 -10 2 0 -8 -8 -10 -24 -6 -13 3
-27 1 -31 -5 -3 -6 -11 -8 -17 -5 -6 4 -30 7 -52 7 -23 0 -47 4 -53 10 -9 6
-18 6 -28 -3 -8 -6 -20 -10 -27 -7 -7 2 -25 1 -40 -4 -22 -6 -26 -4 -21 9 5
13 3 14 -7 5 -7 -6 -19 -9 -28 -6 -9 4 -13 2 -9 -4 5 -7 0 -9 -13 -6 -11 3
-17 9 -14 14 3 5 1 9 -5 9 -6 0 -10 27 -10 68 1 37 1 72 0 79 -1 15 -98 15
-108 0z m307 -167 c0 -5 -2 -10 -4 -10 -3 0 -8 5 -11 10 -3 6 -1 10 4 10 6 0
11 -4 11 -10z"/>
</g>
</svg>
